<?xml version="1.0" encoding="utf-8"?>
<!-- Generator: Adobe Illustrator 24.1.3, SVG Export Plug-In . SVG Version: 6.00 Build 0)  -->
<svg version="1.1" id="レイヤー_1" xmlns="http://www.w3.org/2000/svg" xmlns:xlink="http://www.w3.org/1999/xlink" x="0px"
	 y="0px" width="1366px" height="768px" viewBox="0 0 1366 768" style="enable-background:new 0 0 1366 768;" xml:space="preserve">
<style type="text/css">
	.st0{fill:#FFFFFF;}
	.st1{fill:#FFFFFF;stroke:#000000;stroke-miterlimit:10;}
	.st2{stroke:#000000;stroke-miterlimit:10;}
</style>
<g>
	<polyline points="364.951,314.907 172.967,189.09 239.518,442.463 	"/>
	<polygon points="239.035,442.59 172.153,187.958 173.241,188.671 365.225,314.489 364.677,315.325 173.781,190.221 
		240.002,442.336 	"/>
</g>
<g>
	<polyline points="420.786,315.092 612.77,189.275 546.219,442.648 	"/>
	<polygon points="546.702,442.774 545.735,442.521 611.957,190.406 421.06,315.51 420.512,314.674 613.584,188.143 	"/>
</g>
<g>
	<circle class="st0" cx="397.5" cy="465.5" r="172.5"/>
	<path d="M397.5,308c42.07,0,81.621,16.383,111.369,46.131C538.617,383.879,555,423.43,555,465.5s-16.383,81.622-46.131,111.369
		C479.121,606.617,439.57,623,397.5,623s-81.621-16.383-111.369-46.131C256.383,547.122,240,507.57,240,465.5
		s16.383-81.621,46.131-111.369S355.43,308,397.5,308 M397.5,293C302.231,293,225,370.231,225,465.5S302.231,638,397.5,638
		S570,560.769,570,465.5S492.769,293,397.5,293L397.5,293z"/>
</g>
<g>
	<path d="M716.561,291.228v40.156l42.336-47.5c2.033-2.291,3.764-3.984,5.191-5.078s3.328-1.641,5.701-1.641
		c3.098,0,5.604,0.977,7.516,2.93s2.869,4.336,2.869,7.148c0,3.386-1.623,6.746-4.865,10.078l-26.215,26.719l30.209,46.562
		c2.129,3.23,3.727,6.055,4.791,8.477s1.598,4.779,1.598,7.07c0,2.553-0.932,4.766-2.795,6.641s-4.393,2.812-7.588,2.812
		c-3.002,0-5.447-0.691-7.336-2.07c-1.887-1.379-3.484-3.215-4.791-5.508c-1.309-2.291-2.471-4.375-3.486-6.25l-25.488-42.188
		l-17.646,18.203v23.672c0,4.793-1.018,8.348-3.051,10.664s-4.646,3.477-7.842,3.477c-1.84,0-3.607-0.521-5.301-1.562
		c-1.695-1.041-3.002-2.447-3.922-4.219c-0.678-1.457-1.09-3.15-1.234-5.078c-0.145-1.926-0.219-4.713-0.219-8.359v-85.156
		c0-4.688,0.957-8.203,2.869-10.547s4.514-3.516,7.807-3.516c3.242,0,5.869,1.16,7.879,3.477
		C715.555,282.96,716.561,286.489,716.561,291.228z"/>
	<path d="M887.924,380.681l-5.084-14.375h-43.279l-5.084,14.688c-1.985,5.73-3.68,9.598-5.083,11.602
		c-1.404,2.004-3.703,3.008-6.898,3.008c-2.712,0-5.108-1.068-7.189-3.203c-2.082-2.135-3.122-4.557-3.122-7.266
		c0-1.562,0.241-3.176,0.726-4.844c0.483-1.666,1.282-3.984,2.396-6.953l27.231-74.375c0.774-2.135,1.707-4.7,2.796-7.695
		c1.09-2.994,2.251-5.481,3.486-7.461c1.234-1.979,2.855-3.58,4.865-4.805c2.008-1.223,4.489-1.836,7.443-1.836
		c3.001,0,5.506,0.613,7.516,1.836c2.008,1.225,3.631,2.8,4.865,4.727c1.234,1.928,2.275,3.998,3.123,6.211
		c0.846,2.214,1.924,5.17,3.231,8.867l27.812,73.906c2.178,5.625,3.268,9.714,3.268,12.266c0,2.656-1.029,5.092-3.086,7.305
		c-2.059,2.213-4.539,3.32-7.443,3.32c-1.695,0-3.147-0.326-4.357-0.977c-1.211-0.652-2.228-1.535-3.05-2.656
		c-0.824-1.119-1.707-2.838-2.65-5.156C889.412,384.497,888.601,382.452,887.924,380.681z M845.225,348.884h31.807l-16.049-47.266
		L845.225,348.884z"/>
	<path d="M963.358,291.228v40.156l42.336-47.5c2.034-2.291,3.764-3.984,5.192-5.078c1.428-1.094,3.328-1.641,5.7-1.641
		c3.098,0,5.604,0.977,7.517,2.93c1.912,1.953,2.868,4.336,2.868,7.148c0,3.386-1.622,6.746-4.865,10.078l-26.215,26.719
		l30.209,46.562c2.13,3.23,3.727,6.055,4.792,8.477c1.064,2.422,1.598,4.779,1.598,7.07c0,2.553-0.933,4.766-2.795,6.641
		c-1.864,1.875-4.394,2.812-7.589,2.812c-3.002,0-5.446-0.691-7.335-2.07c-1.888-1.379-3.485-3.215-4.792-5.508
		c-1.308-2.291-2.47-4.375-3.486-6.25l-25.488-42.188l-17.646,18.203v23.672c0,4.793-1.017,8.348-3.05,10.664
		s-4.647,3.477-7.843,3.477c-1.84,0-3.606-0.521-5.301-1.562c-1.695-1.041-3.002-2.447-3.921-4.219
		c-0.679-1.457-1.09-3.15-1.235-5.078c-0.145-1.926-0.218-4.713-0.218-8.359v-85.156c0-4.688,0.956-8.203,2.869-10.547
		c1.911-2.344,4.514-3.516,7.806-3.516c3.243,0,5.87,1.16,7.879,3.477C962.354,282.96,963.358,286.489,963.358,291.228z"/>
	<path d="M1113.444,277.165c11.038,0,20.515,2.41,28.43,7.227c7.915,4.818,13.906,11.667,17.973,20.547
		c4.066,8.881,6.101,19.311,6.101,31.289c0,8.855-1.114,16.902-3.341,24.141c-2.228,7.24-5.567,13.516-10.021,18.828
		s-9.925,9.375-16.411,12.188c-6.488,2.812-13.919,4.219-22.294,4.219c-8.327,0-15.783-1.445-22.366-4.336
		c-6.584-2.891-12.079-6.965-16.484-12.227c-4.405-5.26-7.733-11.588-9.984-18.984c-2.251-7.395-3.377-15.391-3.377-23.984
		c0-8.801,1.174-16.875,3.522-24.219c2.348-7.344,5.748-13.594,10.202-18.75s9.876-9.102,16.267-11.836
		S1105.312,277.165,1113.444,277.165z M1144.089,336.071c0-8.385-1.26-15.65-3.776-21.797c-2.518-6.145-6.112-10.793-10.783-13.945
		c-4.673-3.15-10.034-4.727-16.085-4.727c-4.31,0-8.291,0.873-11.945,2.617c-3.656,1.746-6.803,4.285-9.44,7.617
		c-2.64,3.334-4.72,7.592-6.245,12.773c-1.525,5.183-2.287,11.003-2.287,17.461c0,6.511,0.762,12.396,2.287,17.656
		c1.525,5.261,3.679,9.623,6.463,13.086c2.783,3.464,5.979,6.055,9.586,7.773c3.605,1.719,7.563,2.578,11.872,2.578
		c5.52,0,10.59-1.484,15.214-4.453c4.622-2.969,8.302-7.551,11.038-13.75C1142.721,352.765,1144.089,345.134,1144.089,336.071z"/>
</g>
<g>
	<path d="M721.649,554.154h-31.903v-77.205H720.3v7.093h-23.967v26.14h22.539v6.991h-22.539v29.89h25.316V554.154z"/>
	<path d="M773.709,554.154h-6.587v-32.625c0-9.017-2.54-16.92-10.079-16.92c-5.635,0-11.349,6.079-11.349,15.705v33.84h-6.587
		V513.12c0-5.674-0.159-9.827-0.317-14.286h5.872l0.397,9.018h0.158c2.143-5.369,7.143-10.232,13.889-10.232
		c5.396,0,14.603,4.153,14.603,22.897V554.154z"/>
	<path d="M829.576,498.834c-0.237,3.952-0.396,8.41-0.396,15.198v32.22c0,9.625-0.158,31.712-20.634,31.712
		c-4.92,0-10.316-1.52-13.57-4.356l1.745-6.586c2.778,2.128,6.984,4.154,12.143,4.154c7.937,0,13.729-5.37,13.729-19.96v-6.585
		h-0.158c-2.223,5.167-6.825,9.422-13.412,9.422c-10.317,0-17.698-11.651-17.698-27.153c0-19.149,9.365-29.28,18.729-29.28
		c7.381,0,11.27,5.065,13.095,9.523h0.158l0.318-8.309H829.576z M822.514,520.111c0-9.625-5.477-15.704-11.508-15.704
		c-7.618,0-12.936,8.612-12.936,21.985c0,11.754,4.444,20.974,12.856,20.974c4.921,0,11.587-4.763,11.587-16.211V520.111z"/>
	<path d="M853.383,489.209c-2.54,0-4.286-2.533-4.286-5.775c0-3.141,1.825-5.674,4.365-5.674c2.619,0,4.285,2.533,4.285,5.674
		C857.747,486.98,855.922,489.209,853.383,489.209z M856.716,554.154h-6.587v-55.219h6.587V554.154z"/>
	<path d="M912.347,554.154h-6.587v-32.625c0-9.017-2.54-16.92-10.079-16.92c-5.635,0-11.349,6.079-11.349,15.705v33.84h-6.587
		V513.12c0-5.674-0.159-9.827-0.317-14.286h5.872l0.397,9.018h0.158c2.143-5.369,7.143-10.232,13.889-10.232
		c5.396,0,14.603,4.153,14.603,22.897V554.154z"/>
	<path d="M963.689,551.824c-2.46,1.52-6.983,3.444-13.57,3.444c-12.618,0-20.158-11.348-20.158-27.862
		c0-17.325,7.619-29.787,19.285-29.787c13.333,0,16.745,15.603,16.745,25.228c0,1.925-0.079,3.344-0.159,4.661H936.39
		c0.079,15.299,6.904,21.074,14.682,21.074c5.396,0,8.65-1.419,11.349-2.837L963.689,551.824z M959.483,521.226
		c0.079-7.497-2.381-17.224-10.872-17.224c-7.937,0-11.428,9.625-12.063,17.224H959.483z"/>
	<path d="M1014.398,551.824c-2.46,1.52-6.983,3.444-13.57,3.444c-12.618,0-20.158-11.348-20.158-27.862
		c0-17.325,7.619-29.787,19.285-29.787c13.333,0,16.745,15.603,16.745,25.228c0,1.925-0.079,3.344-0.159,4.661h-29.442
		c0.079,15.299,6.904,21.074,14.682,21.074c5.396,0,8.65-1.419,11.349-2.837L1014.398,551.824z M1010.192,521.226
		c0.079-7.497-2.381-17.224-10.872-17.224c-7.937,0-11.428,9.625-12.063,17.224H1010.192z"/>
	<path d="M1054.236,506.028c-0.714-0.102-1.429-0.203-2.381-0.203c-7.143,0-10.793,9.018-10.793,18.339v29.99h-6.587v-38.703
		c0-5.877-0.079-11.247-0.317-16.516h5.793l0.317,10.639h0.238c1.904-6.89,6.428-11.854,11.745-11.854
		c0.715,0,1.271,0.203,1.984,0.304V506.028z"/>
	<path d="M1073.123,489.209c-2.54,0-4.286-2.533-4.286-5.775c0-3.141,1.825-5.674,4.365-5.674c2.619,0,4.285,2.533,4.285,5.674
		C1077.487,486.98,1075.662,489.209,1073.123,489.209z M1076.456,554.154h-6.587v-55.219h6.587V554.154z"/>
	<path d="M1132.087,554.154h-6.587v-32.625c0-9.017-2.54-16.92-10.079-16.92c-5.635,0-11.349,6.079-11.349,15.705v33.84h-6.587
		V513.12c0-5.674-0.159-9.827-0.317-14.286h5.872l0.397,9.018h0.158c2.143-5.369,7.143-10.232,13.889-10.232
		c5.396,0,14.603,4.153,14.603,22.897V554.154z"/>
	<path d="M1187.953,498.834c-0.237,3.952-0.396,8.41-0.396,15.198v32.22c0,9.625-0.158,31.712-20.634,31.712
		c-4.92,0-10.316-1.52-13.57-4.356l1.745-6.586c2.778,2.128,6.984,4.154,12.143,4.154c7.937,0,13.729-5.37,13.729-19.96v-6.585
		h-0.158c-2.223,5.167-6.825,9.422-13.412,9.422c-10.317,0-17.698-11.651-17.698-27.153c0-19.149,9.365-29.28,18.729-29.28
		c7.381,0,11.27,5.065,13.095,9.523h0.158l0.318-8.309H1187.953z M1180.891,520.111c0-9.625-5.477-15.704-11.508-15.704
		c-7.618,0-12.936,8.612-12.936,21.985c0,11.754,4.444,20.974,12.856,20.974c4.921,0,11.587-4.763,11.587-16.211V520.111z"/>
</g>
<path class="st1" d="M273.5,58.5"/>
<g>
	<rect x="993.5" y="646.5" width="281.5" height="18.5"/>
	<path d="M1275.5,665.5H993V646h282.5V665.5z M994,664.5h280.5V647H994V664.5z"/>
</g>
<rect x="1254.866" y="553.968" transform="matrix(0.9998 -0.0205 0.0205 0.9998 -12.254 26.0926)" class="st2" width="18.5" height="111.261"/>
<g>
	<rect x="83.881" y="96.729" width="281.5" height="18.5"/>
	<path d="M365.881,115.729h-282.5v-19.5h282.5V115.729z M84.381,114.729h280.5v-17.5h-280.5V114.729z"/>
</g>
<g>
	<rect x="85.515" y="96.5" transform="matrix(0.9998 -0.0205 0.0205 0.9998 -3.1046 1.9785)" width="18.5" height="111.261"/>
	<path d="M86.17,208.449L83.864,96.211l19.496-0.4l2.306,112.238L86.17,208.449z M84.885,97.191l2.265,110.238l17.496-0.359
		l-2.265-110.238L84.885,97.191z"/>
</g>
</svg>
